<svg width="current" height="current" viewBox="0 0 24 24" fill="current" xmlns="http://www.w3.org/2000/svg">
<path d="M20 3H4C3.46957 3 2.96086 3.21071 2.58579 3.58579C2.21071 3.96086 2 4.46957 2 5V7C2.00211 7.34903 2.09552 7.69143 2.27095 7.99317C2.44638 8.29491 2.69772 8.54549 3 8.72V19C3 19.5304 3.21071 20.0391 3.58579 20.4142C3.96086 20.7893 4.46957 21 5 21H19C19.5304 21 20.0391 20.7893 20.4142 20.4142C20.7893 20.0391 21 19.5304 21 19V8.72C21.3023 8.54549 21.5536 8.29491 21.7291 7.99317C21.9045 7.69143 21.9979 7.34903 22 7V5C22 4.46957 21.7893 3.96086 21.4142 3.58579C21.0391 3.21071 20.5304 3 20 3ZM4 5H20V7H4V5ZM5 19V9H19V19H5Z" fill="current"/>
<path d="M8 11H16V13H8V11Z" fill="current"/>
</svg>