<svg width="current" height="current" viewBox="0 0 24 24" fill="current" xmlns="http://www.w3.org/2000/svg">
<path d="M3 13H4V20C4 21.103 4.897 22 6 22H18C19.103 22 20 21.103 20 20V13H21C21.1978 13 21.391 12.9413 21.5555 12.8314C21.7199 12.7215 21.848 12.5654 21.9237 12.3827C21.9993 12.2 22.0192 11.9989 21.9806 11.805C21.942 11.611 21.8468 11.4329 21.707 11.293L12.707 2.293C12.6142 2.20006 12.504 2.12632 12.3827 2.07601C12.2614 2.0257 12.1313 1.9998 12 1.9998C11.8687 1.9998 11.7386 2.0257 11.6173 2.07601C11.496 2.12632 11.3858 2.20006 11.293 2.293L2.293 11.293C2.15319 11.4329 2.05798 11.611 2.01942 11.805C1.98085 11.9989 2.00065 12.2 2.07632 12.3827C2.15199 12.5654 2.28013 12.7215 2.44454 12.8314C2.60895 12.9413 2.80225 13 3 13ZM10 20V15H14V20H10ZM12 4.414L18 10.414V15L18.001 20H16V15C16 13.897 15.103 13 14 13H10C8.897 13 8 13.897 8 15V20H6V10.414L12 4.414Z" fill="current"/>
</svg>